<?xml version="1.0" standalone="no"?>
<!DOCTYPE svg PUBLIC "-//W3C//DTD SVG 20010904//EN"
 "http://www.w3.org/TR/2001/REC-SVG-20010904/DTD/svg10.dtd">
<svg version="1.0" xmlns="http://www.w3.org/2000/svg"
 width="366.000000pt" height="272.000000pt" viewBox="0 0 366.000000 272.000000"
 preserveAspectRatio="xMidYMid meet">

<g transform="translate(0.000000,272.000000) scale(0.100000,-0.100000)"
fill="#000000" stroke="none">
<path d="M2117 1811 c-3 -11 -18 -26 -34 -32 -113 -44 -185 -99 -228 -173 -33
-57 -48 -141 -36 -203 5 -26 10 -39 11 -28 1 11 3 33 5 49 1 16 9 35 19 41 9
7 16 18 16 24 0 7 8 11 17 9 11 -2 19 5 21 17 2 11 8 24 12 29 5 5 6 -1 3 -14
-5 -17 -3 -21 6 -15 7 4 11 18 8 31 -4 24 18 42 27 21 3 -7 3 -2 1 10 -3 12
-1 24 5 28 5 3 10 0 10 -7 0 -7 7 -2 16 10 8 12 20 19 26 16 7 -4 8 -2 4 5 -5
7 -13 9 -20 4 -7 -4 -4 0 6 9 11 9 19 20 18 23 0 3 4 13 9 23 8 13 13 14 19 4
7 -10 13 -8 27 8 10 11 13 20 7 20 -6 0 -12 -6 -15 -12 -2 -7 -8 -10 -12 -6
-10 10 15 40 28 35 15 -5 47 30 47 51 0 9 -4 23 -9 30 -6 11 -10 9 -14 -7z m3
-42 c-7 -11 -14 -18 -17 -15 -3 3 0 12 7 21 18 21 23 19 10 -6z"/>
<path d="M2040 1670 c0 -5 5 -10 11 -10 5 0 7 5 4 10 -3 6 -8 10 -11 10 -2 0
-4 -4 -4 -10z"/>
<path d="M1383 1554 c6 -79 43 -150 104 -203 59 -51 166 -106 185 -95 7 5 19
9 26 10 8 2 17 6 20 10 4 4 -1 4 -11 1 -13 -5 -17 -3 -14 5 2 7 11 12 20 12 8
-1 14 4 11 10 -5 15 13 42 23 33 4 -5 1 -12 -7 -17 -8 -6 -10 -10 -4 -10 5 0
15 5 21 11 9 9 19 8 40 -5 28 -17 28 -17 -2 8 -16 14 -88 51 -159 83 -153 67
-202 102 -234 163 l-24 45 5 -61z"/>
<path d="M1831 1334 c0 -11 3 -14 6 -6 3 7 2 16 -1 19 -3 4 -6 -2 -5 -13z"/>
<path d="M530 897 c-109 -26 -189 -88 -232 -182 -18 -39 -23 -67 -22 -130 0
-130 51 -206 174 -264 48 -23 68 -26 160 -26 76 0 119 5 157 18 29 10 54 22
57 25 2 4 7 40 10 81 6 57 5 72 -5 69 -7 -2 -17 -18 -21 -34 -11 -44 -47 -73
-104 -83 -104 -20 -201 21 -251 106 -24 41 -28 59 -28 123 0 88 25 143 88 194
34 27 48 31 110 34 85 4 131 -15 162 -65 28 -46 49 -44 41 5 -3 20 -6 54 -6
74 0 36 -1 37 -52 47 -92 18 -181 21 -238 8z"/>
<path d="M2515 901 c-88 -23 -135 -75 -135 -149 0 -77 45 -132 161 -195 87
-48 119 -81 119 -123 0 -61 -51 -91 -136 -81 -53 6 -97 42 -116 94 -7 18 -18
33 -26 33 -11 0 -12 -11 -7 -51 13 -93 18 -103 61 -118 67 -23 165 -26 224 -6
66 22 126 80 136 130 17 91 -41 168 -185 244 -93 50 -118 81 -98 121 14 28 51
50 86 50 38 0 104 -36 126 -70 22 -33 50 -41 41 -12 -3 9 -8 39 -12 65 -5 40
-11 50 -32 58 -35 13 -170 20 -207 10z"/>
<path d="M940 881 c0 -4 15 -12 33 -17 l32 -10 5 -215 5 -216 28 -36 c62 -82
208 -118 330 -83 72 21 140 83 156 141 6 22 11 122 11 227 l0 186 30 7 c67 15
23 25 -110 25 -132 0 -174 -9 -113 -25 53 -13 53 -14 53 -215 0 -178 -1 -189
-23 -221 -44 -65 -141 -73 -198 -17 l-29 30 2 206 3 206 33 10 c63 18 30 26
-108 26 -77 0 -140 -4 -140 -9z"/>
<path d="M1670 880 c0 -5 16 -12 35 -16 20 -3 40 -15 45 -25 6 -10 10 -118 10
-247 0 -247 0 -246 -54 -260 -14 -4 -26 -11 -26 -17 0 -6 60 -11 155 -13 133
-2 155 0 155 13 0 9 -9 15 -25 15 -51 0 -65 30 -65 135 0 95 0 95 25 95 28 0
61 -26 227 -187 76 -74 124 -113 138 -113 21 0 21 2 8 22 -42 67 -178 297
-178 302 0 4 15 23 34 42 86 88 54 217 -62 252 -48 15 -422 17 -422 2z m353
-70 c41 -32 53 -82 32 -136 -20 -52 -54 -74 -115 -74 l-40 0 0 115 0 115 49 0
c33 0 56 -6 74 -20z"/>
<path d="M2890 880 c0 -5 12 -13 28 -16 62 -15 62 -15 62 -266 0 -215 -1 -229
-20 -248 -11 -11 -31 -20 -45 -20 -16 0 -25 -6 -25 -15 0 -13 33 -15 235 -15
l234 0 24 78 c13 42 20 79 15 81 -6 2 -27 -14 -49 -35 -37 -36 -44 -39 -109
-42 -38 -2 -81 -1 -95 2 -25 6 -25 8 -25 101 l0 95 59 0 c49 0 63 -4 74 -20
14 -20 15 -20 53 18 l39 39 -39 36 c-39 37 -40 37 -58 17 -14 -15 -32 -20 -73
-20 l-55 0 0 80 0 80 98 0 c103 0 119 -6 135 -52 4 -10 11 -18 18 -18 10 0 9
15 -8 118 l-5 32 -234 0 c-146 0 -234 -4 -234 -10z"/>
</g>
</svg>
